<svg 
 xmlns="http://www.w3.org/2000/svg"
 xmlns:xlink="http://www.w3.org/1999/xlink"
 width="86px" height="81px">
<path fill-rule="evenodd"  fill="#0090ff"
 d="M76.000,81.000 L10.000,81.000 C4.477,81.000 0.000,76.523 0.000,71.000 L0.000,13.193 C0.000,7.670 4.477,3.193 10.000,3.193 L14.000,3.193 L14.000,10.000 C14.000,12.209 15.791,14.000 18.000,14.000 L21.000,14.000 C23.209,14.000 25.000,12.209 25.000,10.000 L25.000,3.193 L61.000,3.193 L61.000,10.000 C61.000,12.209 62.791,14.000 65.000,14.000 L68.000,14.000 C70.209,14.000 72.000,12.209 72.000,10.000 L72.000,3.193 L76.000,3.193 C81.523,3.193 86.000,7.670 86.000,13.193 L86.000,71.000 C86.000,76.523 81.523,81.000 76.000,81.000 ZM79.000,30.000 C79.000,26.686 76.314,24.000 73.000,24.000 L14.000,24.000 C10.686,24.000 8.000,26.686 8.000,30.000 L8.000,67.000 C8.000,70.314 10.686,73.000 14.000,73.000 L73.000,73.000 C76.314,73.000 79.000,70.314 79.000,67.000 L79.000,30.000 ZM68.000,12.000 L65.000,12.000 C63.895,12.000 63.000,11.105 63.000,10.000 L63.000,2.000 C63.000,0.895 63.895,0.000 65.000,0.000 L68.000,0.000 C69.105,0.000 70.000,0.895 70.000,2.000 L70.000,10.000 C70.000,11.105 69.105,12.000 68.000,12.000 ZM21.000,12.000 L18.000,12.000 C16.895,12.000 16.000,11.105 16.000,10.000 L16.000,2.000 C16.000,0.895 16.895,0.000 18.000,0.000 L21.000,0.000 C22.105,0.000 23.000,0.895 23.000,2.000 L23.000,10.000 C23.000,11.105 22.105,12.000 21.000,12.000 Z"/>
</svg>